<svg width="61" height="72" viewBox="0 0 61 72" fill="none" xmlns="http://www.w3.org/2000/svg">
<path d="M29.8413 37.625V34.375L33.4621 31.775C33.7913 31.45 33.7913 31.125 33.7913 30.8L30.4996 25.275C30.1705 24.95 29.8413 24.625 29.5121 24.95L25.233 26.25C24.2455 25.6 23.258 24.95 22.2705 24.625L21.6121 20.4C21.6121 20.075 21.283 19.75 20.6246 19.75H14.0413C13.7121 19.75 13.383 20.075 13.0538 20.4L12.3955 24.625C11.408 24.95 10.4205 25.6 9.43296 26.25L5.15379 24.625C4.82463 24.625 4.49546 24.625 4.16629 24.95L0.874627 30.475C0.54546 30.8 0.874626 31.125 1.20379 31.45L4.82463 34.05V37.3L1.20379 39.9C0.874626 40.55 0.874627 40.875 0.874627 41.2L4.16629 46.725C4.49546 47.05 4.82463 47.375 5.15379 47.05L9.76213 45.75C10.7496 46.4 11.7371 47.05 12.7246 47.375L13.383 51.6C13.0538 51.925 13.7121 52.25 14.0413 52.25H20.6246C20.9538 52.25 21.283 51.925 21.6121 51.6L22.2705 47.375C23.258 47.05 24.2455 46.4 25.233 45.75L29.5121 47.375C29.8413 47.375 30.1705 47.375 30.4996 47.05L33.7913 41.525C34.1205 41.2 33.7913 40.875 33.4621 40.55L29.8413 37.625ZM17.333 42.5C13.7121 42.5 10.7496 39.575 10.7496 36C10.7496 32.425 13.7121 29.5 17.333 29.5C20.9538 29.5 23.9163 32.425 23.9163 36C23.9163 39.575 20.9538 42.5 17.333 42.5ZM53.5413 0.25H20.6246C17.0038 0.25 14.0413 3.175 14.0413 6.75V16.5H20.6246V10H53.5413V62H20.6246V55.5H14.0413V65.25C14.0413 68.825 17.0038 71.75 20.6246 71.75H53.5413C57.1621 71.75 60.1246 68.825 60.1246 65.25V6.75C60.1246 3.175 57.1621 0.25 53.5413 0.25Z" fill="#4D5A9D" fill-opacity="0.93"/>
</svg>
