<svg width="69" height="70" viewBox="0 0 69 70" fill="none" xmlns="http://www.w3.org/2000/svg">
<path d="M60.1952 38.3482C60.3336 37.2549 60.4373 36.1616 60.4373 34.9999C60.4373 33.8382 60.3336 32.7449 60.1952 31.6516L67.4923 26.0141C68.1494 25.5016 68.3223 24.5791 67.9073 23.8274L60.9906 12.0058C60.5756 11.2541 59.6419 10.9808 58.8811 11.2541L50.2698 14.6708C48.4715 13.3041 46.5348 12.1766 44.4252 11.3224L43.1111 2.26825C43.0073 1.44825 42.2811 0.833252 41.4165 0.833252H27.5831C26.7186 0.833252 25.9923 1.44825 25.8886 2.26825L24.5744 11.3224C22.4648 12.1766 20.5281 13.3383 18.7298 14.6708L10.1186 11.2541C9.32314 10.9466 8.42398 11.2541 8.00898 12.0058L1.09231 23.8274C0.642727 24.5791 0.850228 25.5016 1.50731 26.0141L8.8044 31.6516C8.66606 32.7449 8.56231 33.8724 8.56231 34.9999C8.56231 36.1274 8.66606 37.2549 8.8044 38.3482L1.50731 43.9858C0.850228 44.4982 0.677311 45.4207 1.09231 46.1724L8.00898 57.9941C8.42398 58.7457 9.35773 59.0191 10.1186 58.7458L18.7298 55.3291C20.5281 56.6958 22.4648 57.8232 24.5744 58.6774L25.8886 67.7316C25.9923 68.5516 26.7186 69.1666 27.5831 69.1666H41.4165C42.2811 69.1666 43.0073 68.5516 43.1111 67.7316L44.4252 58.6774C46.5348 57.8232 48.4715 56.6616 50.2698 55.3291L58.8811 58.7458C59.6765 59.0533 60.5756 58.7457 60.9906 57.9941L67.9073 46.1724C68.3223 45.4207 68.1494 44.4982 67.4923 43.9858L60.1952 38.3482ZM34.4998 46.9582C27.8252 46.9582 22.3956 41.5941 22.3956 34.9999C22.3956 28.4058 27.8252 23.0416 34.4998 23.0416C41.1744 23.0416 46.604 28.4058 46.604 34.9999C46.604 41.5941 41.1744 46.9582 34.4998 46.9582Z" fill="#4D5A9D" fill-opacity="0.93"/>
</svg>
