<svg width="79" height="68" viewBox="0 0 79 68" fill="none" xmlns="http://www.w3.org/2000/svg">
<path d="M75.7083 30.634L59.25 30.6C57.4396 30.6 55.9583 32.13 55.9583 34V64.6C55.9583 66.47 57.4396 68 59.25 68H75.7083C77.5188 68 79 66.47 79 64.6V34C79 32.13 77.5188 30.634 75.7083 30.634ZM75.7083 61.2H59.25V37.4H75.7083V61.2ZM65.8333 0H6.58333C2.92958 0 0 3.026 0 6.8V47.6C0 51.34 2.92958 54.4 6.58333 54.4H29.625V61.2H23.0417V68H49.375V61.2H42.7917V54.4H49.375V47.6H6.58333V6.8H65.8333V23.8H72.4167V6.8C72.4167 3.026 69.4542 0 65.8333 0ZM39.4013 23.8L36.2083 13.6L33.0154 23.8H23.0417L31.1721 29.784L28.0779 39.678L36.2083 33.558L44.3388 39.678L41.2446 29.784L49.375 23.8H39.4013Z" fill="#4D5A9D" fill-opacity="0.93"/>
</svg>
