<svg width="32" height="36" viewBox="0 0 32 36" fill="none" xmlns="http://www.w3.org/2000/svg">
<path d="M6.43556 15.4078C8.99556 21.0052 13.12 25.5741 18.1511 28.4421L22.0622 24.0907C22.5422 23.5567 23.2533 23.3787 23.8756 23.616C25.8667 24.3478 28.0178 24.7434 30.2222 24.7434C31.2 24.7434 32 25.6335 32 26.7213V33.6241C32 34.712 31.2 35.602 30.2222 35.602C13.5289 35.602 0 20.5503 0 1.97789C0 0.89005 0.8 0 1.77778 0H8C8.97778 0 9.77778 0.89005 9.77778 1.97789C9.77778 4.45025 10.1333 6.82372 10.7911 9.03896C10.9867 9.73122 10.8444 10.5026 10.3467 11.0564L6.43556 15.4078Z" fill="#31358D"/>
</svg>
