<svg width="69" height="70" viewBox="0 0 69 70" fill="none" xmlns="http://www.w3.org/2000/svg">
<path d="M60.1962 38.3485C60.3345 37.2552 60.4383 36.1618 60.4383 35.0002C60.4383 33.8385 60.3345 32.7452 60.1962 31.6518L67.4933 26.0143C68.1504 25.5018 68.3233 24.5793 67.9083 23.8277L60.9916 12.006C60.5766 11.2543 59.6429 10.981 58.882 11.2543L50.2708 14.671C48.4725 13.3043 46.5358 12.1768 44.4262 11.3227L43.112 2.2685C43.0083 1.4485 42.282 0.833496 41.4175 0.833496H27.5841C26.7195 0.833496 25.9933 1.4485 25.8895 2.2685L24.5754 11.3227C22.4658 12.1768 20.5291 13.3385 18.7308 14.671L10.1195 11.2543C9.32412 10.9468 8.42495 11.2543 8.00995 12.006L1.09329 23.8277C0.643704 24.5793 0.851204 25.5018 1.50829 26.0143L8.80537 31.6518C8.66704 32.7452 8.56329 33.8727 8.56329 35.0002C8.56329 36.1277 8.66704 37.2552 8.80537 38.3485L1.50829 43.986C0.851204 44.4985 0.678287 45.421 1.09329 46.1727L8.00995 57.9943C8.42495 58.746 9.3587 59.0193 10.1195 58.746L18.7308 55.3293C20.5291 56.696 22.4658 57.8235 24.5754 58.6777L25.8895 67.7318C25.9933 68.5518 26.7195 69.1668 27.5841 69.1668H41.4175C42.282 69.1668 43.0083 68.5518 43.112 67.7318L44.4262 58.6777C46.5358 57.8235 48.4725 56.6618 50.2708 55.3293L58.882 58.746C59.6775 59.0535 60.5766 58.746 60.9916 57.9943L67.9083 46.1727C68.3233 45.421 68.1504 44.4985 67.4933 43.986L60.1962 38.3485ZM34.5008 46.9585C27.8262 46.9585 22.3966 41.5943 22.3966 35.0002C22.3966 28.406 27.8262 23.0418 34.5008 23.0418C41.1754 23.0418 46.605 28.406 46.605 35.0002C46.605 41.5943 41.1754 46.9585 34.5008 46.9585Z" fill="#4D5A9D" fill-opacity="0.93"/>
</svg>
