<svg width="72" height="68" viewBox="0 0 72 68" fill="none" xmlns="http://www.w3.org/2000/svg">
<path d="M52.2 0C45.936 0 39.924 3.00164 36 7.74496C32.076 3.00164 26.064 0 19.8 0C8.712 0 0 8.96785 0 20.3815C0 34.3891 12.24 45.8027 30.78 63.1455L36 68L41.22 63.1084C59.76 45.8027 72 34.3891 72 20.3815C72 8.96785 63.288 0 52.2 0ZM36.36 57.624L36 57.9945L35.64 57.624C18.504 41.6523 7.2 31.091 7.2 20.3815C7.2 12.97 12.6 7.41144 19.8 7.41144C25.344 7.41144 30.744 11.0801 32.652 16.1569H39.384C41.256 11.0801 46.656 7.41144 52.2 7.41144C59.4 7.41144 64.8 12.97 64.8 20.3815C64.8 31.091 53.496 41.6523 36.36 57.624Z" fill="#4D5A9D" fill-opacity="0.93"/>
</svg>
